<svg width="99" height="30" viewBox="0 0 99 30" fill="none" xmlns="http://www.w3.org/2000/svg">
<g clip-path="url(#clip0_343_3349)">
<path d="M44.9061 17.6604C44.9361 16.2462 46.403 15.675 47.9606 15.675C48.8762 15.674 49.7827 15.858 50.6261 16.2161V18.624C49.0985 20.2185 44.846 20.4592 44.9061 17.6604ZM54.669 22.7464V13.3274C54.669 8.87441 51.4343 7.01111 47.9634 7.01111C45.8679 7.01111 43.9505 7.43219 42.0632 8.96705L43.4413 11.5252C44.3396 10.7728 46.1068 10.2619 47.6037 10.2914C49.1614 10.3215 50.5095 11.1041 50.5989 13.239C49.6724 12.8672 48.6882 12.662 47.691 12.6326C44.4269 12.573 41.1021 14.317 41.1021 17.7783C41.1021 20.6669 43.229 23.0741 47.2118 23.0741C48.4098 23.0741 49.9074 22.5927 50.8657 21.3898L51.4049 22.7443L54.669 22.7464Z" fill="black"/>
<path d="M58.0562 7.48966V22.7463H62.1591V11.4317C64.6451 9.77686 68.0266 11.0703 68.0266 14.1098V22.7463H72.1296V13.9295C72.1296 10.0176 69.4054 7.45948 66.0526 7.27912C64.3455 7.18858 62.8779 7.7002 62.0097 8.84415L61.4104 7.48966H58.0562Z" fill="black"/>
<path d="M3.80334 17.6604C3.83338 16.2462 5.30093 15.675 6.85859 15.675C7.77419 15.674 8.68065 15.858 9.52407 16.2161V18.624C7.99644 20.2185 3.74397 20.4592 3.80334 17.6604ZM13.567 22.7464V13.3274C13.567 8.87441 10.3322 7.01111 6.86138 7.01111C4.76588 7.01111 2.84779 7.43219 0.961138 8.96705L2.33858 11.5252C3.23755 10.7728 5.00476 10.2619 6.50165 10.2914C8.05931 10.3215 9.40672 11.1041 9.49683 13.239C8.57039 12.8672 7.58613 12.662 6.58896 12.6326C3.32417 12.5758 0 14.3205 0 17.7811C0 20.6697 2.12694 23.0769 6.10979 23.0769C7.30772 23.0769 8.80531 22.5955 9.76365 21.3926L10.3029 22.7471L13.567 22.7464Z" fill="black"/>
<path d="M20.7285 8.84282L20.1292 7.48833H16.7764V22.7464H20.878V11.7329C22.9735 9.9573 26.0888 11.0107 26.0888 13.8692V22.7464H29.8956V13.7787C29.8956 11.7631 31.0936 10.8311 32.471 10.8311C33.8191 10.8311 35.0163 11.6129 35.0163 13.7499V22.7471H38.9063V13.7787C38.9063 8.66386 35.8811 7.30937 32.5269 7.30937C31.0293 7.30937 29.3522 7.48973 28.0641 9.4148C26.9263 6.82652 22.5236 6.55562 20.7299 8.84282" fill="black"/>
<path d="M78.1409 17.6604C78.1709 16.2462 79.6385 15.675 81.1954 15.675C82.111 15.6739 83.0175 15.8579 83.8609 16.2161V18.624C82.334 20.2185 78.0808 20.4592 78.1409 17.6604ZM87.9038 22.7464V13.3274C87.9038 8.87441 84.6698 7.01111 81.1982 7.01111C79.1027 7.01111 77.1853 7.43219 75.2987 8.96705L76.6761 11.5252C77.5744 10.7728 79.3416 10.2619 80.8392 10.2914C82.3968 10.3215 83.7442 11.1041 83.8337 13.239C82.9081 12.869 81.925 12.6652 80.9293 12.6368C77.6645 12.5772 74.3403 14.3212 74.3403 17.7825C74.3403 20.6711 76.4666 23.0784 80.4494 23.0784C81.6474 23.0784 83.1449 22.5969 84.1033 21.394L84.6425 22.7485L87.9038 22.7464Z" fill="black"/>
<path d="M99 19.4619C96.4351 19.7756 95.9211 18.7636 95.9211 17.3172V10.8191H99V7.5438H95.9043V6.00403H91.9578V7.5438H90.002V10.8191H91.8229V17.8548C91.8229 21.907 95.0493 23.5128 98.9987 22.7471L99 19.4619Z" fill="black"/>
<path d="M94.5322 5.17445H91.9575V3.03884C91.9575 2.23878 92.0392 1.83313 92.2048 1.47942C92.4128 1.03614 92.7421 0.661572 93.1543 0.399565C93.5665 0.137559 94.0444 -0.00103716 94.5322 5.84375e-06C95.215 5.84375e-06 95.8699 0.272551 96.3528 0.757683C96.8356 1.24282 97.1069 1.9008 97.1069 2.58688C97.107 2.92665 97.0404 3.26311 96.9111 3.57705C96.7817 3.89098 96.5921 4.17624 96.353 4.41653C96.1139 4.65681 95.8301 4.84742 95.5176 4.97747C95.2052 5.10752 94.8704 5.17445 94.5322 5.17445Z" fill="#4BA557"/>
</g>
<defs>
<clipPath id="clip0_343_3349">
<rect width="99" height="30" fill="white"/>
</clipPath>
</defs>
</svg>
