<svg width="143" height="40" viewBox="0 0 143 40" fill="none" xmlns="http://www.w3.org/2000/svg">
<path fill-rule="evenodd" clip-rule="evenodd" d="M13.3333 0H26.6667C34.0305 0 40 5.96954 40 13.3333V26.6667C40 34.0305 34.0305 40 26.6667 40H13.3333C5.96953 40 0 34.0305 0 26.6667V13.3333C0 5.96953 5.96954 0 13.3333 0ZM27.9167 7.5L22.6104 9.8366C21.3679 10.3837 20.5833 11.5018 20.5833 12.7248V28.4896L25.8899 26.153C27.1321 25.6059 27.9167 24.4878 27.9167 23.2647V7.5ZM11.6104 23.5605L16.9167 21.2239V28.1085C16.9167 29.3316 16.1321 30.4496 14.8899 30.9967L9.58336 33.3333V26.4488C9.58336 25.2257 10.3682 24.1076 11.6104 23.5605Z" fill="#FF4810"/>
<path fill-rule="evenodd" clip-rule="evenodd" d="M118.678 21.4777H123.865L116.079 2.23145H110.872L103.086 21.4777H108.274L109.335 18.8553H117.616L118.678 21.4777ZM110.75 15.3568L113.476 8.62101L116.201 15.3568H110.75ZM102.793 15.3557V15.5941V15.6135C102.794 16.025 102.793 16.3687 102.749 16.8008C102.588 18.4189 101.757 19.6135 100.298 20.4026C99.045 21.0817 97.669 21.3261 96.2614 21.4301C95.8509 21.4604 95.4404 21.4738 95.0288 21.475V21.4786C95.0109 21.4786 94.9929 21.4782 94.9747 21.4779C94.947 21.4773 94.9192 21.4767 94.8914 21.4774C94.8636 21.4767 94.8358 21.4773 94.8083 21.4779C94.7901 21.4782 94.7721 21.4786 94.7542 21.4786L94.753 21.475C94.3425 21.4738 93.932 21.4604 93.5215 21.4301C92.1139 21.3261 90.7379 21.0817 89.4845 20.4026C88.026 19.6135 87.1953 18.4189 87.0338 16.8008C86.9881 16.3471 86.9889 15.9922 86.9898 15.5522C86.9899 15.4886 86.9901 15.4233 86.9901 15.3557H91.7496C91.7496 15.4214 91.7494 15.466 91.7493 15.5045V15.5052V15.506C91.749 15.5702 91.7488 15.6183 91.7496 15.7224C91.7642 16.7305 92.1576 17.2656 93.1645 17.5027C93.6272 17.6128 94.0924 17.6782 94.5575 17.6939C94.5636 17.6951 94.5708 17.6951 94.5781 17.6951C94.7287 17.7 94.8793 17.7 95.0288 17.6939V17.6951C95.5582 17.6794 96.1485 17.6141 96.6185 17.5027C97.4273 17.3115 97.8585 16.9097 98.0042 16.2356H97.9994C98.0117 16.1947 98.0188 16.1522 98.0258 16.11L98.0259 16.1097C98.0271 16.1019 98.0284 16.0944 98.0297 16.0867C98.0467 15.9717 98.0577 15.8494 98.0601 15.72C98.0564 15.5687 98.037 15.4138 98.0006 15.2552C97.9034 14.8413 97.5876 14.5775 97.2099 14.385C96.7459 14.1461 96.0164 14.016 95.4132 13.9084L95.4131 13.9083C95.2554 13.8802 95.1063 13.8536 94.9729 13.827C94.6059 13.7535 94.2385 13.682 93.871 13.6106C93.0055 13.4424 92.1401 13.2742 91.2808 13.0779C90.4015 12.8782 89.5744 12.5321 88.8397 12.0104C88.7341 11.9354 88.6344 11.8579 88.5385 11.7768H88.536C87.9349 11.26 87.5049 10.6186 87.273 9.83913C87.1261 9.34656 87.0374 8.8503 87.0046 8.35405H87.0022V8.31289C86.9913 8.14349 86.9901 7.97408 86.9937 7.80458C86.9925 7.5141 87.001 7.23577 87.0338 6.91019C87.1953 5.2908 88.026 4.09744 89.4845 3.30832C90.7379 2.62935 92.1139 2.38487 93.5215 2.28078C93.932 2.25053 94.3425 2.23722 94.7542 2.23479V2.23237C94.7765 2.23237 94.7991 2.23267 94.8219 2.23297C94.845 2.23327 94.8682 2.23358 94.8914 2.23358C94.9147 2.23358 94.938 2.23327 94.9611 2.23297C94.9838 2.23267 95.0065 2.23237 95.0288 2.23237L95.03 2.23479C95.4404 2.23722 95.8509 2.25053 96.2614 2.28078C97.669 2.38487 99.045 2.62935 100.298 3.30832C101.757 4.09744 102.588 5.2908 102.749 6.91019C102.795 7.36392 102.794 7.71878 102.793 8.15813C102.793 8.22151 102.793 8.28668 102.793 8.35405H98.0334C98.0334 8.28848 98.0335 8.24403 98.0337 8.20537V8.20447C98.0339 8.1402 98.0341 8.09187 98.0334 7.98853C98.0188 6.98037 97.6253 6.44543 96.6185 6.20821C96.1558 6.09807 95.6906 6.03272 95.2255 6.01578H95.2048C95.0543 6.01093 94.9036 6.01093 94.7542 6.01578C94.2248 6.0315 93.6345 6.09686 93.1645 6.20821C92.4188 6.38371 92.0107 6.7238 91.8431 7.29746C91.7581 7.59641 91.7642 7.95714 91.8443 8.29844C91.9415 8.71229 92.2561 8.97616 92.6338 9.16978C93.1095 9.41323 93.8218 9.54367 94.4174 9.65269H94.4175L94.4179 9.65279C94.5564 9.6781 94.6886 9.70231 94.8101 9.72653C95.1771 9.80017 95.5445 9.87152 95.912 9.94297C96.7775 10.1113 97.6427 10.2795 98.5021 10.4757C99.3814 10.6767 100.209 11.0216 100.943 11.5444C101.049 11.6183 101.149 11.6969 101.244 11.7768H101.247C101.848 12.2936 102.278 12.9351 102.51 13.7145C102.673 14.2603 102.765 14.8074 102.787 15.3557H102.793ZM61.611 4.137C60.7396 4.5825 60.1896 5.49413 60.1896 6.49194V9.25229L60.1872 14.1577C60.1872 14.4963 60.1706 14.8374 60.1327 15.1737C60.0023 16.316 59.3656 17.0637 58.2512 17.139H53.3333V21.4689C53.3878 21.4726 56.4538 21.4762 56.4917 21.4762C56.7909 21.4759 57.0902 21.4766 57.3896 21.4774H57.3897H57.3898C58.1247 21.4793 58.8601 21.4812 59.5956 21.4665C60.2974 21.4531 60.9922 21.3475 61.6703 21.1484C63.1132 20.7248 64.2217 19.8896 64.8299 18.4451C65.2211 17.5177 65.329 16.5356 65.3302 15.5378V15.1433C65.3302 15.1337 65.3308 15.1242 65.3314 15.1145C65.332 15.1044 65.3327 15.0943 65.3327 15.0838V12.9644V12.1778V2.23242L61.611 4.137ZM84.8527 12.6768C84.8527 15.7522 84.1484 18.0386 82.7399 19.5362C81.3402 21.0249 79.1783 21.7691 76.2542 21.7691C73.5262 21.7691 71.4534 21.0249 70.0359 19.5362C68.6273 18.0386 67.923 15.7877 67.923 12.7837V2.26062H73.7268V12.9976C73.7268 14.2278 73.9541 15.1772 74.4088 15.8457C74.8723 16.5053 75.5321 16.8352 76.3879 16.8352C77.2527 16.8352 77.908 16.5232 78.3537 15.8993C78.8084 15.2752 79.0357 14.3526 79.0357 13.1314V2.26062H84.8527V12.6768ZM137.036 13.0852V2.23145H142.303V10.6178V21.4777L137.036 21.4765C136.82 21.094 130.956 10.7303 130.89 10.6226V21.4777H125.621V2.23145H130.89C130.89 2.23145 136.805 12.6859 137.036 13.0852Z" fill="#FF4810"/>
<path d="M62.7961 27.8093C62.6862 27.4646 62.5385 27.1559 62.3529 26.8832C62.1711 26.6067 61.9533 26.3718 61.6995 26.1786C61.4457 25.9817 61.1559 25.832 60.8302 25.7298C60.5082 25.6275 60.1541 25.5763 59.7677 25.5763C59.1124 25.5763 58.5215 25.7449 57.995 26.082C57.4684 26.4192 57.0518 26.9135 56.745 27.565C56.4419 28.2127 56.2904 29.0063 56.2904 29.9457C56.2904 30.8888 56.4438 31.6862 56.7506 32.3377C57.0575 32.9892 57.4779 33.4835 58.012 33.8207C58.5461 34.1578 59.1541 34.3263 59.8359 34.3263C60.4684 34.3263 61.0196 34.1976 61.4893 33.94C61.9628 33.6824 62.3283 33.3188 62.5859 32.8491C62.8472 32.3756 62.9779 31.8188 62.9779 31.1786L63.4325 31.2638H60.1029V29.815H64.6768V31.1388C64.6768 32.1161 64.4684 32.9646 64.0518 33.6843C63.6389 34.4002 63.0669 34.9532 62.3359 35.3434C61.6086 35.7335 60.7753 35.9286 59.8359 35.9286C58.7828 35.9286 57.8586 35.6862 57.0631 35.2013C56.2715 34.7165 55.6541 34.029 55.2109 33.1388C54.7677 32.2449 54.5461 31.1843 54.5461 29.957C54.5461 29.029 54.6749 28.1957 54.9325 27.457C55.19 26.7184 55.5518 26.0915 56.0177 25.5763C56.4874 25.0574 57.0385 24.6616 57.6711 24.3888C58.3075 24.1123 59.0025 23.9741 59.7563 23.9741C60.3851 23.9741 60.9703 24.0669 61.512 24.2525C62.0575 24.4381 62.5423 24.7013 62.9666 25.0423C63.3946 25.3832 63.7487 25.7885 64.0291 26.2582C64.3094 26.7241 64.4988 27.2411 64.5972 27.8093H62.7961ZM69.6289 35.9627C69.0759 35.9627 68.5759 35.8604 68.1289 35.6559C67.6819 35.4476 67.3277 35.1464 67.0664 34.7525C66.8088 34.3585 66.68 33.8756 66.68 33.3036C66.68 32.8112 66.7747 32.4059 66.9641 32.0877C67.1535 31.7695 67.4092 31.5176 67.7312 31.332C68.0531 31.1464 68.413 31.0063 68.8107 30.9116C69.2084 30.8169 69.6137 30.7449 70.0266 30.6957C70.5493 30.6351 70.9736 30.5858 71.2993 30.5479C71.6251 30.5063 71.8618 30.44 72.0096 30.3491C72.1573 30.2582 72.2312 30.1104 72.2312 29.9059V29.8661C72.2312 29.3699 72.091 28.9854 71.8107 28.7127C71.5342 28.44 71.1213 28.3036 70.5721 28.3036C70.0001 28.3036 69.5493 28.4305 69.2198 28.6843C68.894 28.9343 68.6687 29.2127 68.5437 29.5195L66.9471 29.1559C67.1365 28.6256 67.413 28.1976 67.7766 27.8718C68.144 27.5423 68.5664 27.3036 69.0437 27.1559C69.5209 27.0044 70.0228 26.9286 70.5493 26.9286C70.8978 26.9286 71.2671 26.9703 71.6573 27.0536C72.0512 27.1332 72.4187 27.2809 72.7596 27.4968C73.1043 27.7127 73.3865 28.0214 73.6062 28.4229C73.8259 28.8207 73.9357 29.3377 73.9357 29.9741V35.7695H72.2766V34.5763H72.2084C72.0986 34.796 71.9338 35.012 71.7141 35.2241C71.4944 35.4362 71.2122 35.6123 70.8675 35.7525C70.5228 35.8926 70.1099 35.9627 69.6289 35.9627ZM69.9982 34.5991C70.4679 34.5991 70.8694 34.5063 71.2027 34.3207C71.5399 34.1351 71.7955 33.8926 71.9698 33.5934C72.1478 33.2904 72.2368 32.9665 72.2368 32.6218V31.4968C72.1762 31.5574 72.0588 31.6142 71.8846 31.6673C71.7141 31.7165 71.519 31.7601 71.2993 31.7979C71.0796 31.832 70.8656 31.8642 70.6573 31.8945C70.449 31.921 70.2747 31.9438 70.1346 31.9627C69.805 32.0044 69.5039 32.0745 69.2312 32.1729C68.9622 32.2714 68.7463 32.4135 68.5834 32.5991C68.4243 32.7809 68.3448 33.0233 68.3448 33.3263C68.3448 33.7468 68.5001 34.065 68.8107 34.2809C69.1213 34.493 69.5171 34.5991 69.9982 34.5991ZM76.5185 35.7695V27.0423H78.1605V28.4286H78.2514C78.4105 27.9589 78.6908 27.5896 79.0923 27.3207C79.4977 27.0479 79.956 26.9116 80.4673 26.9116C80.5734 26.9116 80.6984 26.9154 80.8423 26.9229C80.9901 26.9305 81.1056 26.94 81.1889 26.9513V28.5763C81.1208 28.5574 80.9995 28.5366 80.8253 28.5138C80.6511 28.4873 80.4768 28.4741 80.3026 28.4741C79.9011 28.4741 79.5431 28.5593 79.2287 28.7298C78.9181 28.8964 78.6719 29.1294 78.4901 29.4286C78.3083 29.7241 78.2173 30.0612 78.2173 30.44V35.7695H76.5185ZM85.4408 35.9627C84.8877 35.9627 84.3877 35.8604 83.9408 35.6559C83.4938 35.4476 83.1396 35.1464 82.8783 34.7525C82.6207 34.3585 82.4919 33.8756 82.4919 33.3036C82.4919 32.8112 82.5866 32.4059 82.776 32.0877C82.9654 31.7695 83.2211 31.5176 83.543 31.332C83.865 31.1464 84.2248 31.0063 84.6226 30.9116C85.0203 30.8169 85.4256 30.7449 85.8385 30.6957C86.3612 30.6351 86.7855 30.5858 87.1112 30.5479C87.437 30.5063 87.6737 30.44 87.8214 30.3491C87.9692 30.2582 88.043 30.1104 88.043 29.9059V29.8661C88.043 29.3699 87.9029 28.9854 87.6226 28.7127C87.3461 28.44 86.9332 28.3036 86.3839 28.3036C85.812 28.3036 85.3612 28.4305 85.0317 28.6843C84.7059 28.9343 84.4805 29.2127 84.3555 29.5195L82.7589 29.1559C82.9483 28.6256 83.2248 28.1976 83.5885 27.8718C83.9559 27.5423 84.3783 27.3036 84.8555 27.1559C85.3328 27.0044 85.8347 26.9286 86.3612 26.9286C86.7097 26.9286 87.079 26.9703 87.4692 27.0536C87.8631 27.1332 88.2305 27.2809 88.5714 27.4968C88.9161 27.7127 89.1983 28.0214 89.418 28.4229C89.6377 28.8207 89.7476 29.3377 89.7476 29.9741V35.7695H88.0885V34.5763H88.0203C87.9105 34.796 87.7457 35.012 87.526 35.2241C87.3063 35.4362 87.0241 35.6123 86.6794 35.7525C86.3347 35.8926 85.9218 35.9627 85.4408 35.9627ZM85.8101 34.5991C86.2798 34.5991 86.6813 34.5063 87.0146 34.3207C87.3517 34.1351 87.6074 33.8926 87.7817 33.5934C87.9597 33.2904 88.0487 32.9665 88.0487 32.6218V31.4968C87.9881 31.5574 87.8707 31.6142 87.6964 31.6673C87.526 31.7165 87.3309 31.7601 87.1112 31.7979C86.8915 31.832 86.6775 31.8642 86.4692 31.8945C86.2608 31.921 86.0866 31.9438 85.9464 31.9627C85.6169 32.0044 85.3158 32.0745 85.043 32.1729C84.7741 32.2714 84.5582 32.4135 84.3953 32.5991C84.2362 32.7809 84.1567 33.0233 84.1567 33.3263C84.1567 33.7468 84.312 34.065 84.6226 34.2809C84.9332 34.493 85.329 34.5991 85.8101 34.5991ZM94.0292 30.5877V35.7695H92.3304V27.0423H93.961V28.4627H94.069C94.2698 28.0006 94.5841 27.6294 95.0122 27.3491C95.444 27.0688 95.9876 26.9286 96.6429 26.9286C97.2376 26.9286 97.7584 27.0536 98.2054 27.3036C98.6523 27.5498 98.9989 27.9173 99.2451 28.4059C99.4913 28.8945 99.6144 29.4987 99.6144 30.2184V35.7695H97.9156V30.4229C97.9156 29.7904 97.7508 29.296 97.4213 28.94C97.0917 28.5801 96.6391 28.4002 96.0633 28.4002C95.6694 28.4002 95.319 28.4854 95.0122 28.6559C94.7091 28.8263 94.4686 29.0763 94.2906 29.4059C94.1163 29.7317 94.0292 30.1256 94.0292 30.5877ZM106.287 27.0423V28.4059H101.52V27.0423H106.287ZM102.798 24.9513H104.497V33.207C104.497 33.5366 104.546 33.7847 104.645 33.9513C104.743 34.1142 104.87 34.226 105.025 34.2866C105.184 34.3434 105.357 34.3718 105.542 34.3718C105.679 34.3718 105.798 34.3623 105.9 34.3434C106.003 34.3245 106.082 34.3093 106.139 34.2979L106.446 35.7013C106.347 35.7392 106.207 35.7771 106.025 35.815C105.844 35.8567 105.616 35.8794 105.344 35.8832C104.897 35.8907 104.48 35.8112 104.094 35.6445C103.707 35.4779 103.395 35.2203 103.156 34.8718C102.917 34.5233 102.798 34.0858 102.798 33.5593V24.9513Z" fill="#1A4374"/>
</svg>
